<?xml version="1.0" encoding="iso-8859-1"?>
<!-- Generator: Adobe Illustrator 19.0.0, SVG Export Plug-In . SVG Version: 6.00 Build 0)  -->
<svg version="1.1" id="Capa_1" xmlns="http://www.w3.org/2000/svg" xmlns:xlink="http://www.w3.org/1999/xlink" x="0px" y="0px"
	 viewBox="0 0 512.005 512.005" style="enable-background:new 0 0 512.005 512.005;" xml:space="preserve">
<path style="fill:#FFA74F;" d="M411.376,89.335c-41.575-39.32-96.754-60.974-155.372-60.974S142.207,50.015,100.632,89.335
	c-41.963,39.687-65.073,92.563-65.073,148.887v49.724c0,68.121,55.223,123.344,123.344,123.344h194.204
	c68.121,0,123.344-55.223,123.344-123.344v-49.724C476.449,181.898,453.339,129.022,411.376,89.335z"/>
<path style="fill:#F2973D;" d="M87.068,287.946v-49.724c0-56.324,23.11-109.2,65.073-148.887
	c35.425-33.503,80.728-54.169,129.617-59.554c-8.489-0.935-17.082-1.421-25.755-1.421c-58.617,0-113.797,21.654-155.372,60.974
	c-41.963,39.687-65.073,92.563-65.073,148.887v49.724c0,68.121,55.223,123.344,123.344,123.344h51.509
	C142.291,411.289,87.068,356.067,87.068,287.946z"/>
<polygon style="fill:#FF99B1;" points="363.088,376.499 148.92,376.499 114.74,433.595 148.92,512 363.088,512 397.269,433.595 "/>
<circle style="fill:#E3B098;" cx="451.1" cy="238.219" r="43.019"/>
<polygon style="fill:#EFEDEE;" points="114.74,433.595 80.559,454.548 80.559,483.273 114.74,497.637 148.92,483.273 
	148.92,454.548 "/>
<polygon style="fill:#D4D2D3;" points="111.465,483.274 111.465,454.548 130.192,443.067 114.74,433.595 80.559,454.548 
	80.559,483.274 114.74,497.637 130.192,491.144 "/>
<polygon style="fill:#EFEDEE;" points="397.269,433.595 431.449,454.548 431.449,483.273 397.269,497.637 363.088,483.273 
	363.088,454.548 "/>
<path style="fill:#DC5A64;" d="M80.559,454.548h68.362c9.741-9.126,15.837-22.097,15.837-36.499
	c0-27.623-22.393-50.017-50.017-50.017c-27.623,0-50.017,22.393-50.017,50.017C64.722,432.45,70.818,445.421,80.559,454.548z"/>
<path style="fill:#BF4E57;" d="M95.628,418.048c0-22.229,14.506-41.061,34.565-47.573c-4.868-1.58-10.059-2.445-15.453-2.445
	c-27.623,0-50.017,22.393-50.017,50.017c0,14.402,6.096,27.373,15.837,36.499h30.905C101.723,445.421,95.628,432.45,95.628,418.048z
	"/>
<path style="fill:#DC5A64;" d="M431.449,454.548h-68.362c-9.741-9.126-15.837-22.097-15.837-36.499
	c0-27.623,22.393-50.017,50.017-50.017c27.623,0,50.017,22.393,50.017,50.017C447.286,432.45,441.19,445.421,431.449,454.548z"/>
<path style="fill:#FFCE1C;" d="M256.004,473.342c-43.393,0-78.697-32.934-78.697-73.416c0-4.267,3.459-7.726,7.726-7.726
	c4.267,0,7.726,3.459,7.726,7.726c0,31.961,28.371,57.963,63.244,57.963s63.244-26.002,63.244-57.963
	c0-4.267,3.459-7.726,7.726-7.726s7.726,3.459,7.726,7.726C334.701,440.408,299.397,473.342,256.004,473.342z"/>
<path style="fill:#FBC4AC;" d="M256.004,120.312c-87.18,80.084-189.813,75.224-189.841,75.223
	c-3.433,13.702-5.258,27.993-5.258,42.689c0,101.904,87.349,184.515,195.099,184.515s195.099-82.61,195.099-184.515
	c0-14.696-1.827-28.985-5.258-42.689C445.818,195.536,343.185,200.396,256.004,120.312z"/>
<path style="fill:#E3B098;" d="M113.396,364.123c-16.492-20.973-26.328-47.426-26.328-76.177v-49.724
	c0-14.947,1.643-29.646,4.819-43.925c-15.988,1.694-25.714,1.237-25.723,1.236c-0.006,0.026-0.011,0.053-0.019,0.078
	c-1.523-0.263-3.247-0.409-5.241-0.409c-23.759,0-43.019,19.26-43.019,43.019s19.26,43.019,43.019,43.019
	c1.994,0,3.72-0.147,5.244-0.41C74.079,312.541,90.652,341.09,113.396,364.123z"/>
<path style="fill:#3A484A;" d="M157.819,257.382c-4.267,0-7.726-3.459-7.726-7.726v-19.091c0-4.267,3.459-7.726,7.726-7.726
	c4.267,0,7.726,3.459,7.726,7.726v19.091C165.545,253.923,162.086,257.382,157.819,257.382z"/>
<path style="fill:#F98084;" d="M170.819,285.444h-26.002c-4.267,0-7.726-3.459-7.726-7.726c0-4.267,3.459-7.726,7.726-7.726h26.002
	c4.267,0,7.726,3.459,7.726,7.726C178.546,281.984,175.086,285.444,170.819,285.444z"/>
<path style="fill:#3A484A;" d="M354.19,257.382c-4.267,0-7.726-3.459-7.726-7.726v-19.091c0-4.267,3.459-7.726,7.726-7.726
	c4.267,0,7.726,3.459,7.726,7.726v19.091C361.916,253.923,358.457,257.382,354.19,257.382z"/>
<path style="fill:#F98084;" d="M367.19,285.444h-26.002c-4.267,0-7.726-3.459-7.726-7.726c0-4.267,3.459-7.726,7.726-7.726h26.002
	c4.267,0,7.726,3.459,7.726,7.726C374.917,281.984,371.458,285.444,367.19,285.444z"/>
<path style="fill:#3A484A;" d="M256.004,284.365c-9.074,0-17.596-3.795-23.379-10.411c-2.808-3.213-2.481-8.094,0.732-10.902
	c3.213-2.807,8.093-2.481,10.902,0.732c2.848,3.259,7.129,5.128,11.744,5.128c4.615,0,8.896-1.869,11.744-5.128
	c2.808-3.213,7.689-3.541,10.902-0.732c3.213,2.808,3.541,7.689,0.732,10.902C273.6,280.57,265.078,284.365,256.004,284.365z"/>
<rect x="80.554" y="483.279" style="fill:#FBC4AC;" width="68.363" height="28.727"/>
<rect x="80.554" y="483.279" style="fill:#E3B098;" width="30.905" height="28.726"/>
<rect x="363.091" y="483.279" style="fill:#FBC4AC;" width="68.363" height="28.727"/>
<ellipse style="fill:#DC5A64;" cx="256.004" cy="465.621" rx="14.194" ry="21.512"/>
<path style="fill:#FFCE1C;" d="M298.249,17.208L283.716,0l-27.712,20.25L228.292,0l-14.532,17.208l-29.063-9.098l18.215,61.875
	c2.826,9.6,11.638,16.192,21.646,16.192h62.896c10.008,0,18.82-6.592,21.646-16.192l18.215-61.875L298.249,17.208z"/>
<g>
</g>
<g>
</g>
<g>
</g>
<g>
</g>
<g>
</g>
<g>
</g>
<g>
</g>
<g>
</g>
<g>
</g>
<g>
</g>
<g>
</g>
<g>
</g>
<g>
</g>
<g>
</g>
<g>
</g>
</svg>
