<?xml version="1.0" encoding="iso-8859-1"?>
<!-- Generator: Adobe Illustrator 19.0.0, SVG Export Plug-In . SVG Version: 6.00 Build 0)  -->
<svg version="1.1" id="Capa_1" xmlns="http://www.w3.org/2000/svg" xmlns:xlink="http://www.w3.org/1999/xlink" x="0px" y="0px"
	 viewBox="0 0 512 512" style="enable-background:new 0 0 512 512;" xml:space="preserve">
<path style="fill:#00A1E0;" d="M315.985,88.146c0-33.13-26.857-59.985-59.985-59.985l0,0c-33.129,0-59.985,26.857-59.985,59.985
	V102.2h119.971V88.146z"/>
<path style="fill:#008FC7;" d="M271.453,30.18c-4.931-1.311-10.108-2.019-15.453-2.019l0,0c-33.13,0-59.985,26.857-59.985,59.985
	V102.2h30.905V88.146C226.92,60.361,245.815,36.998,271.453,30.18z"/>
<path style="fill:#D4D2D3;" d="M27.505,208c-4.267,0-7.726-3.459-7.726-7.726V59.051c0-4.267,3.459-7.726,7.726-7.726
	s7.726,3.459,7.726,7.726v141.223C35.231,204.54,31.772,208,27.505,208z"/>
<path style="fill:#BAB8B9;" d="M27.505,51.324c-4.267,0-7.726,3.459-7.726,7.726v44.272c2.504,0.479,5.085,0.739,7.726,0.739
	s5.222-0.26,7.726-0.739V59.05C35.231,54.783,31.772,51.324,27.505,51.324z"/>
<path style="fill:#D4D2D3;" d="M484.496,208c-4.267,0-7.726-3.459-7.726-7.726V59.051c0-4.267,3.459-7.726,7.726-7.726
	c4.267,0,7.726,3.459,7.726,7.726v141.223C492.223,204.54,488.763,208,484.496,208z"/>
<path style="fill:#BAB8B9;" d="M484.496,51.324c4.267,0,7.726,3.459,7.726,7.726v44.272c-2.504,0.479-5.085,0.739-7.726,0.739
	s-5.222-0.26-7.726-0.739V59.05C476.77,54.783,480.228,51.324,484.496,51.324z"/>
<g>
	<path style="fill:#3A484A;" d="M27.504,16.406c-8.471,0-15.338,6.867-15.338,15.338v31.223c0,8.471,6.867,15.338,15.338,15.338
		s15.338-6.867,15.338-15.338V31.745C42.843,23.273,35.976,16.406,27.504,16.406z"/>
	<path style="fill:#3A484A;" d="M484.496,16.406c8.471,0,15.338,6.867,15.338,15.338v31.223c0,8.471-6.867,15.338-15.338,15.338
		c-8.471,0-15.338-6.867-15.338-15.338V31.745C469.157,23.273,476.024,16.406,484.496,16.406z"/>
</g>
<g>
	<path style="fill:#00A1E0;" d="M59.985,164.931C26.857,164.931,0,191.787,0,224.916l0,0c0,33.13,26.857,59.985,59.985,59.985
		h14.054V164.931H59.985z"/>
	<path style="fill:#00A1E0;" d="M452.015,164.931c33.129,0,59.985,26.857,59.985,59.985l0,0c0,33.13-26.857,59.985-59.985,59.985
		h-14.054V164.931H452.015z"/>
</g>
<g>
	<path style="fill:#D4D2D3;" d="M90.16,412.881l-24.839-15.053l-31.82,15.053c-1.841,5.712-2.825,11.806-2.825,18.131v23.22
		l29.742,20.681l29.741-20.681l20.649-17.862L90.16,412.881z"/>
	<path style="fill:#D4D2D3;" d="M421.84,412.881l24.839-15.053l31.82,15.053c1.841,5.712,2.825,11.806,2.825,18.131v23.22
		l-29.742,20.681l-29.741-20.681l-20.649-17.862L421.84,412.881z"/>
</g>
<g>
	<path style="fill:#9E9C9D;" d="M90.16,371.53c-26.52,0-49,17.36-56.659,41.351H90.16l18.269-15.053L90.16,371.53z"/>
	<polygon style="fill:#9E9C9D;" points="90.16,454.233 30.678,454.233 30.678,495.594 90.16,495.594 110.81,474.913 	"/>
	<path style="fill:#9E9C9D;" d="M421.84,371.53c26.52,0,49,17.36,56.659,41.351H421.84l-18.269-15.053L421.84,371.53z"/>
	<polygon style="fill:#9E9C9D;" points="421.84,454.233 481.322,454.233 481.322,495.594 421.84,495.594 401.19,474.913 	"/>
</g>
<polygon style="fill:#BAB8B9;" points="256,345.019 90.16,371.53 90.16,495.594 177.19,495.594 256,474.913 334.81,495.594 
	421.84,495.594 421.84,371.53 "/>
<path style="fill:#00A1E0;" d="M334.81,495.594h-28.033c0-28.044-22.733-50.777-50.777-50.777
	c-28.044,0-50.777,22.733-50.777,50.777H177.19c0-43.53,35.28-78.81,78.81-78.81S334.81,452.063,334.81,495.594z"/>
<path style="fill:#008FC7;" d="M306.777,495.594H205.222c0-28.044,22.733-50.777,50.777-50.777
	C284.043,444.818,306.777,467.551,306.777,495.594z"/>
<path style="fill:#00A1E0;" d="M130.248,412.881c-4.017,0-7.273,3.256-7.273,7.273v13.509c0,4.017,3.256,7.273,7.273,7.273
	c4.017,0,7.273-3.256,7.273-7.273v-13.509C137.521,416.136,134.265,412.881,130.248,412.881z"/>
<path style="fill:#DC5A64;" d="M159.339,412.881c-4.017,0-7.273,3.256-7.273,7.273v13.509c0,4.017,3.256,7.273,7.273,7.273
	s7.273-3.256,7.273-7.273v-13.509C166.611,416.136,163.356,412.881,159.339,412.881z"/>
<path style="fill:#D4D2D3;" d="M421.834,78.307H90.166c-20.585,0-37.273,16.688-37.273,37.273v218.673
	c0,20.585,16.688,37.273,37.273,37.273h331.67c20.585,0,37.273-16.688,37.273-37.273V115.579
	C459.107,94.994,442.419,78.307,421.834,78.307z"/>
<g>
	<path style="fill:#3A484A;" d="M139.284,224.537c-4.267,0-7.726-3.459-7.726-7.726v-22.694c0-4.267,3.459-7.726,7.726-7.726
		s7.726,3.459,7.726,7.726v22.694C147.01,221.078,143.552,224.537,139.284,224.537z"/>
	<path style="fill:#3A484A;" d="M372.716,224.537c-4.267,0-7.726-3.459-7.726-7.726v-22.694c0-4.267,3.459-7.726,7.726-7.726
		c4.267,0,7.726,3.459,7.726,7.726v22.694C380.443,221.078,376.983,224.537,372.716,224.537z"/>
</g>
<g>
	<path style="fill:#EFEDEE;" d="M216.859,230.497H202.8c-12.388,0-22.437,10.049-22.437,22.448c0,6.188,2.518,11.806,6.569,15.868
		c4.062,4.052,9.68,6.569,15.868,6.569h14.059l19.57-22.442L216.859,230.497z"/>
	<polygon style="fill:#EFEDEE;" points="295.141,230.497 256,230.497 236.43,252.939 256,275.381 295.141,275.381 313.388,252.939 	
		"/>
</g>
<g>
	<path style="fill:#00A1E0;" d="M331.637,252.944c0,12.388-10.049,22.437-22.437,22.437h-14.059v-44.885H309.2
		c6.188,0,11.806,2.507,15.868,6.569C329.119,241.128,331.637,246.745,331.637,252.944z"/>
	<rect x="216.863" y="230.493" style="fill:#00A1E0;" width="39.141" height="44.885"/>
</g>
<g>
</g>
<g>
</g>
<g>
</g>
<g>
</g>
<g>
</g>
<g>
</g>
<g>
</g>
<g>
</g>
<g>
</g>
<g>
</g>
<g>
</g>
<g>
</g>
<g>
</g>
<g>
</g>
<g>
</g>
</svg>
