<?xml version="1.0" encoding="iso-8859-1"?>
<!-- Generator: Adobe Illustrator 19.0.0, SVG Export Plug-In . SVG Version: 6.00 Build 0)  -->
<svg version="1.1" id="Capa_1" xmlns="http://www.w3.org/2000/svg" xmlns:xlink="http://www.w3.org/1999/xlink" x="0px" y="0px"
	 viewBox="0 0 512 512" style="enable-background:new 0 0 512 512;" xml:space="preserve">
<polygon style="fill:#A36549;" points="273.577,372.647 238.427,372.647 208.099,444.523 238.427,512 273.577,512 311.117,433.191 
	"/>
<g>
	<path style="fill:#D4835F;" d="M399.712,512l7.726-5.568l7.726,5.568l0,0h44.669c0-20.336-2.225-37.756-5.934-52.663
		c-18.77-75.409-75.626-86.69-75.626-86.69H273.577V512H399.712L399.712,512z"/>
	<path style="fill:#D4835F;" d="M133.73,372.647c0,0-56.856,11.28-75.626,86.69C54.396,474.244,52.17,491.664,52.17,512h44.669l0,0
		l7.726-5.086l7.726,5.086l0,0h126.135V372.647H133.73z"/>
</g>
<path style="fill:#A36549;" d="M155.364,372.647H133.73c0,0-56.856,11.28-75.626,86.69C54.396,474.244,52.17,491.664,52.17,512
	h21.634c0-20.336,2.225-37.756,5.934-52.663C98.508,383.928,155.364,372.647,155.364,372.647z"/>
<g>
	<path style="fill:#D4835F;" d="M29.813,278.473v100.454c0,8.539,6.922,15.461,15.461,15.461s15.461-6.922,15.461-15.461V278.473
		H29.813z"/>
	<path style="fill:#D4835F;" d="M482.192,278.473v100.454c0,8.539-6.922,15.461-15.461,15.461c-8.539,0-15.461-6.922-15.461-15.461
		V278.473H482.192z"/>
</g>
<g>
	<ellipse style="fill:#A36549;" cx="63.591" cy="245.121" rx="60.67" ry="71.659"/>
	<ellipse style="fill:#A36549;" cx="448.409" cy="245.121" rx="60.67" ry="71.659"/>
</g>
<path style="fill:#D4835F;" d="M56.473,152.599c0,0,2.594-152.599,199.529-152.599s199.529,152.599,199.529,152.599l-199.013,21.81
	L56.473,152.599z"/>
<path style="fill:#A36549;" d="M97.681,152.599c0,0,2.417-141.756,178.925-152.008C269.984,0.206,263.124,0,256.002,0
	C59.067,0,56.473,152.599,56.473,152.599l200.044,21.81l20.55-2.252L97.681,152.599z"/>
<path style="fill:#313D40;" d="M205.046,81.302c-5.934,0-11.593-3.438-14.144-9.214c-3.448-7.808,0.087-16.931,7.893-20.378
	c14.973-6.612,35.289-10.252,57.207-10.252c21.664,0,41.813,3.568,56.737,10.046c7.828,3.399,11.42,12.499,8.021,20.328
	c-3.4,7.829-12.498,11.422-20.329,8.021c-10.965-4.76-27.159-7.49-44.43-7.49c-17.456,0-33.758,2.777-44.722,7.619
	C209.25,80.877,207.131,81.302,205.046,81.302z"/>
<ellipse style="fill:#3A484A;" cx="154.704" cy="64.386" rx="72.113" ry="62.151"/>
<path style="fill:#2FC8B4;" d="M154.701,95.636c-22.336,0-41.207-14.31-41.207-31.248s18.871-31.248,41.207-31.248
	s41.207,14.31,41.207,31.248S177.038,95.636,154.701,95.636z"/>
<path style="fill:#00AE95;" d="M134.098,64.386c0-14.253,13.361-26.642,30.905-30.213c-3.306-0.673-6.76-1.035-10.302-1.035
	c-22.336,0-41.207,14.31-41.207,31.248s18.871,31.248,41.207,31.248c3.542,0,6.996-0.363,10.302-1.035
	C147.459,91.028,134.098,78.639,134.098,64.386z"/>
<ellipse style="fill:#3A484A;" cx="357.3" cy="64.386" rx="72.113" ry="62.151"/>
<path style="fill:#2FC8B4;" d="M357.304,95.636c22.336,0,41.207-14.31,41.207-31.248s-18.871-31.248-41.207-31.248
	s-41.207,14.31-41.207,31.248S334.966,95.636,357.304,95.636z"/>
<path style="fill:#00AE95;" d="M336.7,64.386c0-14.253,13.361-26.642,30.905-30.213c-3.306-0.673-6.76-1.035-10.302-1.035
	c-22.336,0-41.207,14.31-41.207,31.248s18.871,31.248,41.207,31.248c3.542,0,6.996-0.363,10.302-1.035
	C350.062,91.028,336.7,78.639,336.7,64.386z"/>
<g>
	<path style="fill:#EFEDEE;" d="M387.743,375.706l-114.164,47.167c0,0,18.473,18.612,29.141,39.505
		c6.547,12.823,21.918,18.379,35.188,12.795C369.792,461.754,414.245,432.021,387.743,375.706z"/>
	<path style="fill:#EFEDEE;" d="M124.261,375.706l114.164,47.167c0,0-18.473,18.612-29.141,39.505
		c-6.547,12.823-21.918,18.379-35.188,12.795C142.213,461.754,97.759,432.021,124.261,375.706z"/>
</g>
<path style="fill:#D4D2D3;" d="M145.944,387.911l90.264,37.293c1.392-1.497,2.218-2.33,2.218-2.33l-114.164-47.167
	c-19.772,42.014-0.049,69.23,24.483,85.917C135.861,443.421,131.164,419.315,145.944,387.911z"/>
<g>
	<path style="fill:#A36549;" d="M399.712,512v-45.328c0-4.267,3.458-7.726,7.726-7.726c4.268,0,7.726,3.459,7.726,7.726V512H399.712
		z"/>
	<path style="fill:#A36549;" d="M96.839,512v-45.328c0-4.267,3.458-7.726,7.726-7.726c4.268,0,7.726,3.459,7.726,7.726V512H96.839z"
		/>
</g>
<path style="fill:#FBC4AC;" d="M446.007,196.22l-189.489-21.811L65.998,196.22c-3.435,13.715-5.263,28.018-5.263,42.726
	c0,101.993,87.424,184.674,195.268,184.674S451.27,340.938,451.27,238.945C451.27,224.236,449.442,209.933,446.007,196.22z"/>
<path style="fill:#E3B098;" d="M94.73,238.944c0-14.708,1.828-29.011,5.263-42.726L273.47,176.36l-16.953-1.951L65.998,196.22
	c-3.435,13.715-5.263,28.017-5.263,42.726c0,101.993,87.424,184.674,195.268,184.674c5.729,0,11.395-0.247,16.998-0.705
	C173.118,414.767,94.73,335.52,94.73,238.944z"/>
<path style="fill:#3A484A;" d="M157.731,267.386c-4.268,0-7.726-3.459-7.726-7.726v-19.108c0-4.267,3.458-7.726,7.726-7.726
	c4.268,0,7.726,3.459,7.726,7.726v19.108C165.457,263.927,161.999,267.386,157.731,267.386z"/>
<path style="fill:#F98084;" d="M170.744,295.471h-26.025c-4.268,0-7.726-3.459-7.726-7.726s3.458-7.726,7.726-7.726h26.025
	c4.268,0,7.726,3.459,7.726,7.726S175.011,295.471,170.744,295.471z"/>
<path style="fill:#3A484A;" d="M354.272,267.386c-4.268,0-7.726-3.459-7.726-7.726v-19.108c0-4.267,3.458-7.726,7.726-7.726
	c4.268,0,7.726,3.459,7.726,7.726v19.108C361.998,263.927,358.54,267.386,354.272,267.386z"/>
<path style="fill:#F98084;" d="M367.285,295.471H341.26c-4.268,0-7.726-3.459-7.726-7.726s3.458-7.726,7.726-7.726h26.025
	c4.268,0,7.726,3.459,7.726,7.726S371.553,295.471,367.285,295.471z"/>
<path style="fill:#3A484A;" d="M256.002,294.392c-9.079,0-17.607-3.797-23.393-10.418c-2.809-3.213-2.481-8.094,0.732-10.902
	s8.094-2.481,10.901,0.732c2.854,3.264,7.139,5.135,11.76,5.135s8.907-1.872,11.761-5.135c2.808-3.212,7.688-3.54,10.902-0.731
	c3.212,2.808,3.541,7.689,0.731,10.902C273.607,290.594,265.081,294.392,256.002,294.392z"/>
<path style="fill:#EFEDEE;" d="M455.531,152.599H56.473c-12.045,0-21.81,9.765-21.81,21.81l0,0c0,12.045,9.765,21.81,21.81,21.81
	H455.53c12.045,0,21.81-9.765,21.81-21.81l0,0C477.341,162.364,467.576,152.599,455.531,152.599z"/>
<path style="fill:#D4D2D3;" d="M75.871,174.409L75.871,174.409c0-12.045,9.765-21.81,21.81-21.81H56.473
	c-12.046,0-21.81,9.765-21.81,21.81l0,0c0,12.045,9.765,21.81,21.81,21.81h41.207C85.636,196.22,75.871,186.455,75.871,174.409z"/>
<g>
</g>
<g>
</g>
<g>
</g>
<g>
</g>
<g>
</g>
<g>
</g>
<g>
</g>
<g>
</g>
<g>
</g>
<g>
</g>
<g>
</g>
<g>
</g>
<g>
</g>
<g>
</g>
<g>
</g>
</svg>
