<?xml version="1.0" encoding="iso-8859-1"?>
<!-- Generator: Adobe Illustrator 19.0.0, SVG Export Plug-In . SVG Version: 6.00 Build 0)  -->
<svg version="1.1" id="Capa_1" xmlns="http://www.w3.org/2000/svg" xmlns:xlink="http://www.w3.org/1999/xlink" x="0px" y="0px"
	 viewBox="0 0 512 512" style="enable-background:new 0 0 512 512;" xml:space="preserve">
<g>
	<path style="fill:#DC5A64;" d="M408.823,505.959L416.55,512h45.05c0-75.249-30.174-108.232-53.985-122.55l-59.241,55.91
		L324.018,512h77.079L408.823,505.959z"/>
	<path style="fill:#DC5A64;" d="M103.177,506.233l7.726,5.767h77.079l-24.358-66.64l-59.241-55.91
		C80.574,403.768,50.4,436.751,50.4,512h45.05L103.177,506.233z"/>
</g>
<polygon style="fill:#D4D2D3;" points="159.849,378.718 163.625,445.36 223.28,512 288.72,512 348.375,445.36 352.151,378.718 "/>
<g>
	<path style="fill:#BF4E57;" d="M401.097,512v-56.417c0-4.267,3.459-7.726,7.726-7.726s7.726,3.459,7.726,7.726V512H401.097z"/>
	<path style="fill:#BF4E57;" d="M95.45,512v-56.417c0-4.267,3.459-7.726,7.726-7.726c4.267,0,7.726,3.459,7.726,7.726V512H95.45z"/>
</g>
<path style="fill:#3A484A;" d="M407.616,389.45c-22.197,49.727-59.426,95.69-83.598,122.55H288.72
	c31.04-48.201,52.02-100.595,63.431-133.282h27.178C379.329,378.718,392.123,380.123,407.616,389.45z"/>
<path style="fill:#BF4E57;" d="M116.233,400.632l-11.849-11.183C80.574,403.768,50.4,436.751,50.4,512h26.785
	C77.184,451.981,96.381,418.85,116.233,400.632z"/>
<path style="fill:#3A484A;" d="M223.28,512h-35.298c-24.172-26.86-61.402-72.823-83.598-122.55
	c15.493-9.326,28.287-10.731,28.287-10.731h27.178C171.26,411.405,192.24,463.799,223.28,512z"/>
<path style="fill:#313D40;" d="M131.169,389.45L131.169,389.45c15.479-9.317,28.263-10.728,28.286-10.731h-26.784
	c0,0-1.21,0.134-3.331,0.587c-0.076,0.016-0.155,0.033-0.234,0.05c-0.572,0.125-1.206,0.273-1.897,0.446
	c-3.535,0.886-8.548,2.448-14.347,5.141c-0.92,0.428-1.858,0.881-2.814,1.367c-0.036,0.019-0.073,0.039-0.109,0.058
	c-1.799,0.917-3.656,1.939-5.554,3.081c2.326,5.213,4.826,10.379,7.45,15.491C118.279,398.22,124.941,393.194,131.169,389.45z"/>
<g>
	<path style="fill:#EFEDEE;" d="M256,405.568c-32.368,46.632-117.229,69.248-89.337-8.168l18.566-40.658L256,405.568z"/>
	<path style="fill:#EFEDEE;" d="M256,405.568c32.368,46.632,117.229,69.248,89.337-8.168l-18.566-40.658L256,405.568z"/>
</g>
<g>
	<circle style="fill:#3A484A;" cx="256" cy="448.16" r="8.778"/>
	<circle style="fill:#3A484A;" cx="256" cy="481.074" r="8.778"/>
</g>
<circle style="fill:#A36549;" cx="94.179" cy="61.244" r="61.244"/>
<path style="fill:#FF99B1;" d="M94.18,91.745c-16.82,0-30.505-13.684-30.505-30.505c0-16.82,13.684-30.505,30.505-30.505
	s30.505,13.684,30.505,30.505C124.685,78.06,111.001,91.745,94.18,91.745z"/>
<circle style="fill:#A36549;" cx="417.821" cy="61.244" r="61.244"/>
<path style="fill:#FF99B1;" d="M417.82,91.745c16.82,0,30.505-13.684,30.505-30.505c0-16.82-13.684-30.505-30.505-30.505
	s-30.505,13.684-30.505,30.505C387.315,78.06,400.999,91.745,417.82,91.745z"/>
<path style="fill:#D4835F;" d="M256,405.568c-184.095,0-254.811-88.733-225.23-157.788c3.524-8.226,5.727-16.971,6.019-25.916
	C42.354,51.773,145.026,5.077,256,5.077s213.646,46.697,219.21,216.787c0.293,8.945,2.495,17.689,6.019,25.916
	C510.811,316.835,440.095,405.568,256,405.568z"/>
<path style="fill:#A36549;" d="M61.676,247.78c3.524-8.226,5.727-16.971,6.019-25.916C73,59.7,166.572,9.698,271.453,5.389
	C266.326,5.178,261.172,5.076,256,5.076c-110.974,0-213.646,46.697-219.21,216.788c-0.293,8.945-2.495,17.689-6.019,25.916
	C1.189,316.835,71.905,405.568,256,405.568c5.247,0,10.389-0.081,15.453-0.223C98.873,400.517,32.937,314.868,61.676,247.78z"/>
<path style="fill:#313D40;" d="M280.53,199.634c0,8.603-10.983,15.578-24.53,15.578c-13.548,0-24.53-6.974-24.53-15.578
	C231.47,191.031,280.53,191.031,280.53,199.634z"/>
<g>
	<path style="fill:#DC5A64;" d="M163.625,237.975h-28.198c-4.267,0-7.726,3.459-7.726,7.726c0,4.268,3.459,7.726,7.726,7.726h28.198
		c4.267,0,7.726-3.458,7.726-7.726C171.351,241.434,167.892,237.975,163.625,237.975z"/>
	<path style="fill:#DC5A64;" d="M376.573,237.975h-28.198c-4.267,0-7.726,3.459-7.726,7.726c0,4.268,3.459,7.726,7.726,7.726h28.198
		c4.267,0,7.726-3.458,7.726-7.726C384.3,241.434,380.84,237.975,376.573,237.975z"/>
</g>
<path style="fill:#EFEDEE;" d="M274.814,242.413v16.014c0,5.718-4.635,10.352-10.352,10.352h-16.924
	c-5.718,0-10.352-4.635-10.352-10.352v-16.014"/>
<g>
	<path style="fill:#3A484A;" d="M149.526,222.997c4.267,0,7.726-3.459,7.726-7.726v-20.702c0-4.268-3.459-7.726-7.726-7.726
		s-7.726,3.458-7.726,7.726v20.703C141.799,219.539,145.259,222.997,149.526,222.997z"/>
	<path style="fill:#3A484A;" d="M362.474,222.997c4.267,0,7.726-3.459,7.726-7.726v-20.702c0-4.268-3.459-7.726-7.726-7.726
		s-7.726,3.458-7.726,7.726v20.703C354.748,219.539,358.207,222.997,362.474,222.997z"/>
</g>
<path style="fill:#313D40;" d="M298.714,228.272c-3.212-2.808-8.093-2.481-10.902,0.732c-3.156,3.612-7.894,5.682-12.997,5.682
	c-5.104,0-9.84-2.071-12.997-5.682c-0.025-0.028-0.053-0.052-0.077-0.079c-2.987-3.318-8.495-3.335-11.48,0
	c-0.025,0.028-0.053,0.052-0.076,0.079c-3.156,3.612-7.895,5.682-12.998,5.682c-5.102,0-9.84-2.071-12.997-5.682
	c-2.808-3.213-7.689-3.542-10.902-0.732c-3.213,2.808-3.541,7.689-0.732,10.902c6.091,6.969,15.069,10.965,24.632,10.965
	c6.857,0,13.408-2.064,18.814-5.797c5.407,3.732,11.957,5.797,18.815,5.797c9.562,0,18.54-3.996,24.632-10.965
	C302.255,235.96,301.926,231.079,298.714,228.272z"/>
<g>
</g>
<g>
</g>
<g>
</g>
<g>
</g>
<g>
</g>
<g>
</g>
<g>
</g>
<g>
</g>
<g>
</g>
<g>
</g>
<g>
</g>
<g>
</g>
<g>
</g>
<g>
</g>
<g>
</g>
</svg>
