<?xml version="1.0" encoding="iso-8859-1"?>
<!-- Generator: Adobe Illustrator 19.0.0, SVG Export Plug-In . SVG Version: 6.00 Build 0)  -->
<svg version="1.1" id="Capa_1" xmlns="http://www.w3.org/2000/svg" xmlns:xlink="http://www.w3.org/1999/xlink" x="0px" y="0px"
	 viewBox="0 0 512.001 512.001" style="enable-background:new 0 0 512.001 512.001;" xml:space="preserve">
<g>
	<path style="fill:#3A484A;" d="M374.535,383.901h-44.472l0,0l0,0l-32.209,64.049l32.21,64.05l0,0l0,0h65.093l7.726-3.247
		l7.726,3.247h42.999C453.609,392.59,374.535,383.901,374.535,383.901z"/>
	<path style="fill:#3A484A;" d="M181.938,383.901h-44.472c0,0-79.073,8.69-79.073,128.1h42.999l7.726-3.762l7.726,3.762h65.093
		l32.209-64.051L181.938,383.901z"/>
</g>
<path style="fill:#313D40;" d="M161.16,383.901h-23.694c0,0-79.073,8.69-79.073,128.1h23.694
	C82.087,392.59,161.16,383.901,161.16,383.901z"/>
<rect x="181.941" y="383.898" style="fill:#EFEDEE;" width="148.13" height="128.103"/>
<g>
	<path style="fill:#313D40;" d="M395.156,512.001v-43.678c0-4.267,3.459-7.726,7.726-7.726s7.726,3.459,7.726,7.726v43.678H395.156z
		"/>
	<path style="fill:#313D40;" d="M101.392,512.001v-43.678c0-4.267,3.459-7.726,7.726-7.726s7.726,3.459,7.726,7.726v43.678H101.392z
		"/>
</g>
<circle style="fill:#E3B098;" cx="256" cy="414.051" r="44.863"/>
<path style="fill:#3A484A;" d="M421.034,48.72c-9.99-32.694-42.468-53.093-76.261-47.921l-78.341,12.015
	c-6.918,1.056-13.945,1.056-20.862,0L167.229,0.8c-33.793-5.173-66.272,15.226-76.261,47.921L73.79,104.929L256,125.94
	l182.21-21.013L421.034,48.72z"/>
<path style="fill:#313D40;" d="M114.997,104.928l17.177-56.208C139.193,25.748,157.32,8.862,179.2,2.636L167.229,0.8
	c-33.793-5.173-66.272,15.227-76.261,47.921L73.79,104.929L256,125.941l20.604-2.377L114.997,104.928z"/>
<polygon style="fill:#EFEDEE;" points="438.211,104.928 73.79,104.928 60.956,146.954 256,171.738 451.044,146.954 "/>
<polygon style="fill:#D4D2D3;" points="102.163,146.954 114.997,104.928 73.79,104.928 60.956,146.954 256,171.738 276.604,169.12 
	"/>
<circle style="fill:#C99C87;" cx="451.858" cy="239.363" r="44.216"/>
<path style="fill:#E3B098;" d="M65.423,196.507c-3.446,13.756-5.279,28.102-5.279,42.855c0,102.301,87.688,185.232,195.857,185.232
	s195.857-82.932,195.857-185.232c0-14.752-1.834-29.098-5.279-42.855L256,165.164L65.423,196.507z"/>
<path style="fill:#C99C87;" d="M91.049,239.36c0-14.752,1.834-29.098,5.279-42.855l175.126-28.8L256,165.164L68.195,196.05
	c-2.321-0.593-4.987-0.906-8.052-0.906c-24.419,0-44.216,19.796-44.216,44.215c0,24.42,19.796,44.216,44.216,44.216
	c2.014,0,3.841-0.147,5.525-0.408c20.811,81.155,98.123,141.423,190.331,141.423c5.201,0,10.354-0.196,15.453-0.573
	C170.509,416.568,91.049,336.742,91.049,239.36z"/>
<g>
	<path style="fill:#313D40;" d="M177.955,177.133l-87.581,19.374l6.17,40.15c2.247,14.617,14.822,25.408,29.612,25.408h59.947
		c14.42,0,27.298-9.026,32.216-22.583l15.592-42.975L177.955,177.133z"/>
	<path style="fill:#313D40;" d="M334.046,177.133l87.581,19.374l-6.17,40.15c-2.247,14.617-14.822,25.408-29.612,25.408h-59.947
		c-14.42,0-27.298-9.026-32.216-22.583l-15.592-42.975L334.046,177.133z"/>
</g>
<path style="fill:#3A484A;" d="M479.062,146.954H32.938c-13.688,0-24.785,11.096-24.785,24.784l0,0
	c0,13.688,11.096,24.785,24.785,24.785h446.124c13.688,0,24.785-11.096,24.785-24.785l0,0
	C503.846,158.05,492.75,146.954,479.062,146.954z"/>
<path style="fill:#313D40;" d="M49.361,171.738L49.361,171.738c0-13.688,11.096-24.784,24.785-24.784H32.939
	c-13.688,0-24.785,11.096-24.785,24.784l0,0c0,13.688,11.096,24.785,24.785,24.785h41.207
	C60.458,196.523,49.361,185.426,49.361,171.738z"/>
<path style="fill:#3A484A;" d="M256,292.841c-9.243,0-17.921-3.864-23.811-10.603c-2.808-3.213-2.481-8.094,0.732-10.902
	c3.212-2.808,8.093-2.481,10.902,0.732c2.955,3.38,7.393,5.319,12.176,5.319c4.783,0,9.221-1.939,12.176-5.319
	c2.808-3.213,7.689-3.54,10.902-0.731c3.213,2.808,3.541,7.689,0.731,10.902C273.92,288.977,265.242,292.841,256,292.841z"/>
<g>
</g>
<g>
</g>
<g>
</g>
<g>
</g>
<g>
</g>
<g>
</g>
<g>
</g>
<g>
</g>
<g>
</g>
<g>
</g>
<g>
</g>
<g>
</g>
<g>
</g>
<g>
</g>
<g>
</g>
</svg>
