<?xml version="1.0" encoding="iso-8859-1"?>
<!-- Generator: Adobe Illustrator 19.0.0, SVG Export Plug-In . SVG Version: 6.00 Build 0)  -->
<svg version="1.1" id="Capa_1" xmlns="http://www.w3.org/2000/svg" xmlns:xlink="http://www.w3.org/1999/xlink" x="0px" y="0px"
	 viewBox="0 0 512 512" style="enable-background:new 0 0 512 512;" xml:space="preserve">
<g>
	<path style="fill:#87543D;" d="M164.268,370.727H139.33c0,0-3.967,1.491-10.117,5.143L96.72,469.842L129.211,512h35.056
		l24.368-18.367L164.268,370.727z"/>
	<path style="fill:#87543D;" d="M382.787,375.871c-1.721-1.018-3.265-1.869-4.597-2.561c-3.453-1.805-5.521-2.582-5.521-2.582
		h-24.938l-24.752,90.018L347.732,512h35.056l17.161-25.365v-67.173L382.787,375.871z"/>
</g>
<g>
	<path style="fill:#008FC7;" d="M450.495,512h-67.708V375.871c2.719,1.616,5.857,3.663,9.278,6.182
		C415.115,399.077,450.495,432.757,450.495,512z"/>
	<rect x="164.273" y="370.731" style="fill:#008FC7;" width="183.465" height="141.269"/>
	<path style="fill:#008FC7;" d="M129.211,375.871V512H61.504c0-79.243,35.382-112.923,58.43-129.947
		C123.355,379.533,126.493,377.487,129.211,375.871z"/>
</g>
<path style="fill:#007BAB;" d="M129.211,375.871c-2.719,1.616-5.857,3.663-9.278,6.182C96.884,399.077,61.504,432.757,61.504,512
	h30.905c0-56.638,18.075-89.997,36.802-110.638C129.211,401.362,129.211,375.871,129.211,375.871z"/>
<ellipse style="fill:#FBC4AC;" cx="256" cy="219.49" rx="204.336" ry="193.252"/>
<path style="fill:#008FC7;" d="M482.139,176.272c-8.839-42.398-30.673-81.333-63.621-112.494C375.032,22.651,317.315,0,256,0
	S136.968,22.651,93.481,63.779C60.532,94.939,38.699,133.874,29.86,176.272H482.139z"/>
<path style="fill:#007BAB;" d="M134.688,63.779c38.579-36.487,88.361-58.415,141.916-62.904C269.79,0.304,262.92,0,256,0
	C194.685,0,136.968,22.651,93.481,63.779C60.532,94.939,38.699,133.874,29.86,176.272h41.207
	C79.906,133.874,101.74,94.939,134.688,63.779z"/>
<g>
	<circle style="fill:#FBC4AC;" cx="51.664" cy="230.287" r="45.057"/>
	<circle style="fill:#FBC4AC;" cx="460.336" cy="230.287" r="45.057"/>
</g>
<g>
	<path style="fill:#3A484A;" d="M153.164,271.079c-4.268,0-7.726-3.459-7.726-7.726v-19.995c0-4.267,3.458-7.726,7.726-7.726
		c4.268,0,7.726,3.459,7.726,7.726v19.995C160.891,267.619,157.431,271.079,153.164,271.079z"/>
	<path style="fill:#3A484A;" d="M358.836,271.079c-4.268,0-7.726-3.459-7.726-7.726v-19.995c0-4.267,3.458-7.726,7.726-7.726
		c4.268,0,7.726,3.459,7.726,7.726v19.995C366.562,267.619,363.104,271.079,358.836,271.079z"/>
</g>
<path style="fill:#FF8840;" d="M42.598,218.143L42.598,218.143L42.598,218.143c-23.264,21.859-16.467,60.404,12.87,72.988l0,0l0,0
	c-14.384,28.498,5.185,62.393,37.057,64.184l0,0l0,0c-3.77,31.699,26.212,56.857,56.774,47.64l0,0l0,0
	c7.299,31.076,44.077,44.463,69.644,25.349l0,0c17.487,26.706,56.627,26.706,74.114,0l0,0c25.567,19.115,62.346,5.728,69.644-25.349
	l0,0l0,0c30.562,9.217,60.545-15.941,56.774-47.64l0,0l0,0c31.872-1.792,51.441-35.686,37.057-64.184l0,0l0,0
	c29.337-12.584,36.134-51.129,12.87-72.988l0,0l0,0l-54.121-59.645l-12.455,50.99c0,41.812-1.02,109.819-64.247,84.483
	c-63.227-25.335-38.705-32.293-82.58-32.293s-19.353,6.958-82.58,32.293s-64.247-42.672-64.247-84.483l-17.383-34.163
	L42.598,218.143z"/>
<path style="fill:#3A484A;" d="M256,309.835c-9.397,0-18.222-3.929-24.21-10.779c-2.809-3.212-2.481-8.094,0.731-10.902
	c3.213-2.808,8.093-2.482,10.902,0.731c3.054,3.493,7.638,5.497,12.576,5.497c4.939,0,9.523-2.004,12.576-5.496
	c2.808-3.213,7.689-3.541,10.902-0.731c3.212,2.808,3.541,7.689,0.731,10.902C274.222,305.906,265.397,309.835,256,309.835z"/>
<path style="fill:#00A1E0;" d="M479.352,141.161H32.963c-10.626,0-19.242,8.614-19.242,19.242v29.843
	c0,10.626,8.614,19.242,19.242,19.242H479.35c10.626,0,19.242-8.614,19.242-19.242v-29.843
	C498.592,149.776,489.978,141.161,479.352,141.161z"/>
<path style="fill:#008FC7;" d="M54.929,190.246v-29.843c0-10.626,8.614-19.241,19.242-19.241H32.964
	c-10.626,0-19.242,8.614-19.242,19.241v29.843c0,10.626,8.614,19.241,19.242,19.241h41.207
	C63.544,209.487,54.929,200.872,54.929,190.246z"/>
<g>
</g>
<g>
</g>
<g>
</g>
<g>
</g>
<g>
</g>
<g>
</g>
<g>
</g>
<g>
</g>
<g>
</g>
<g>
</g>
<g>
</g>
<g>
</g>
<g>
</g>
<g>
</g>
<g>
</g>
</svg>
