<?xml version="1.0" encoding="iso-8859-1"?>
<!-- Generator: Adobe Illustrator 19.0.0, SVG Export Plug-In . SVG Version: 6.00 Build 0)  -->
<svg version="1.1" id="Capa_1" xmlns="http://www.w3.org/2000/svg" xmlns:xlink="http://www.w3.org/1999/xlink" x="0px" y="0px"
	 viewBox="0 0 511.999 511.999" style="enable-background:new 0 0 511.999 511.999;" xml:space="preserve">
<g>
	<path style="fill:#2FC8B4;" d="M399.441,504.821l7.726,7.178h53.863c0-62.299-20.745-95.545-41.37-113.213l-96.137,24.746v64.274
		l13.721,24.193h54.47L399.441,504.821z"/>
	<path style="fill:#2FC8B4;" d="M92.339,398.787C71.713,416.454,50.968,449.7,50.968,511.999h53.864l7.726-7.178l7.726,7.178h54.47
		l13.722-24.193v-64.274L92.339,398.787z"/>
</g>
<g>
	<path style="fill:#00AE95;" d="M104.832,511.999v-52.468c0-4.267,3.459-7.726,7.726-7.726c4.267,0,7.726,3.459,7.726,7.726v52.468
		H104.832z"/>
	<path style="fill:#00AE95;" d="M391.715,511.999v-52.468c0-4.267,3.459-7.726,7.726-7.726c4.267,0,7.726,3.459,7.726,7.726v52.468
		H391.715z"/>
</g>
<polygon style="fill:#FF99B1;" points="304.022,379.081 207.978,379.081 181.254,455.393 207.978,511.999 304.022,511.999 
	330.746,455.393 "/>
<g>
	<path style="fill:#00AE95;" d="M438.531,346.312l-134.51,8.612v24.157v132.918h33.224c0-60.437,53.037-79.989,82.416-113.213
		C431.891,384.974,440.016,368.79,438.531,346.312z"/>
	<path style="fill:#00AE95;" d="M73.468,346.312c-1.484,22.478,6.641,38.662,18.871,52.474
		c29.379,33.224,82.416,52.777,82.416,113.213h33.224V379.081v-24.157L73.468,346.312z"/>
</g>
<path style="fill:#313D40;" d="M40.905,38.673c8.937-51.921,59.537-48.899,117.221-6.814l-31.133,31.545L40.905,38.673z"/>
<path style="fill:#FF99B1;" d="M126.992,63.404l-72.07,73.002c-14.061-43.407-17.83-75.58-14.018-97.733
	C75.32-4.236,126.992,63.404,126.992,63.404z"/>
<path style="fill:#313D40;" d="M471.095,38.673c-8.937-51.921-59.537-48.899-117.221-6.814l31.133,31.545L471.095,38.673z"/>
<path style="fill:#FF99B1;" d="M385.007,63.404l72.07,73.002c14.061-43.407,17.83-75.58,14.018-97.733
	C436.679-4.236,385.007,63.404,385.007,63.404z"/>
<path style="fill:#3A484A;" d="M137.154,384.682C-89.717,295.226,72.948,4.745,256,4.745s345.716,290.48,118.846,379.937H137.154z"
	/>
<path style="fill:#313D40;" d="M271.444,5.441c-1.271-0.112-2.545-0.211-3.818-0.298c-3.869-0.262-7.748-0.399-11.626-0.399
	c-47.653,0-93.35,19.808-130.413,48.897C86.684,84.174,55.34,125.687,38.5,172.327c-0.083,0.23-0.166,0.46-0.248,0.691
	c-8.99,25.15-13.274,51.032-11.644,76.038c1.285,19.705,6.417,39.24,15.514,56.796c15.297,29.526,41.122,52.036,70.209,67.455
	c7.695,4.078,15.963,7.88,24.825,11.374h30.905C-52.404,297.752,94.976,21.007,271.444,5.441z"/>
<path style="fill:#EFEDEE;" d="M374.846,384.682c-8.601,3.402-17.755,6.499-27.493,9.284c-59.656,17.072-123.049,17.072-182.706,0
	c-9.738-2.784-18.893-5.882-27.493-9.284C16.217,272.022,75.862,125.758,155.58,125.758c79.729,0,81.159,69.167,81.159,69.167
	h38.522c0,0,1.43-69.167,81.159-69.167C436.137,125.758,495.783,272.022,374.846,384.682z"/>
<path style="fill:#3A484A;" d="M150.88,223.074c-4.267,0-7.726-3.459-7.726-7.726v-20.439c0-4.267,3.459-7.726,7.726-7.726
	c4.267,0,7.726,3.459,7.726,7.726v20.439C158.606,219.614,155.147,223.074,150.88,223.074z"/>
<path style="fill:#F98084;" d="M164.8,253.116h-27.839c-4.267,0-7.726-3.459-7.726-7.726s3.459-7.726,7.726-7.726H164.8
	c4.267,0,7.726,3.459,7.726,7.726S169.067,253.116,164.8,253.116z"/>
<path style="fill:#3A484A;" d="M361.119,223.074c-4.267,0-7.726-3.459-7.726-7.726v-20.439c0-4.267,3.459-7.726,7.726-7.726
	c4.267,0,7.726,3.459,7.726,7.726v20.439C368.846,219.614,365.386,223.074,361.119,223.074z"/>
<path style="fill:#F98084;" d="M375.038,253.116H347.2c-4.267,0-7.726-3.459-7.726-7.726s3.459-7.726,7.726-7.726h27.839
	c4.267,0,7.726,3.459,7.726,7.726S379.305,253.116,375.038,253.116z"/>
<path style="fill:#3A484A;" d="M256,263.902c-9.557,0-18.531-3.995-24.619-10.96c-2.808-3.213-2.481-8.094,0.732-10.902
	c3.213-2.808,8.093-2.481,10.902,0.732c3.153,3.608,7.886,5.677,12.984,5.677c5.097,0,9.83-2.07,12.984-5.677
	c2.808-3.213,7.689-3.541,10.902-0.732s3.541,7.689,0.731,10.902C274.53,259.907,265.557,263.902,256,263.902z"/>
<path style="fill:#313D40;" d="M282.926,218.298c0,9.444-12.055,17.1-26.926,17.1s-26.926-7.655-26.926-17.1
	C229.074,208.854,282.926,208.854,282.926,218.298z"/>
<path style="fill:#D4D2D3;" d="M164.675,393.976c10.505,3.005,21.162,5.485,31.913,7.431c0.435,0.079,0.868,0.164,1.302,0.24
	c19.798,3.513,39.922,5.224,60.029,5.107c0.063,0,0.126-0.001,0.189-0.001c2.147-0.014,4.295-0.049,6.442-0.105
	c0.112-0.002,0.225-0.005,0.337-0.008c2.189-0.059,4.378-0.137,6.566-0.239c-25.588-1.19-51.068-5.327-75.9-12.434
	c-9.738-2.785-18.893-5.882-27.493-9.284c-27.706-10.924-49.597-24.849-66.356-40.873c9.491,13.894,21.22,27.617,35.451,40.873
	c6.451,2.551,13.212,4.931,20.299,7.137C159.851,392.565,162.259,393.284,164.675,393.976z"/>
<g>
</g>
<g>
</g>
<g>
</g>
<g>
</g>
<g>
</g>
<g>
</g>
<g>
</g>
<g>
</g>
<g>
</g>
<g>
</g>
<g>
</g>
<g>
</g>
<g>
</g>
<g>
</g>
<g>
</g>
</svg>
