<?xml version="1.0" encoding="iso-8859-1"?>
<!-- Generator: Adobe Illustrator 19.0.0, SVG Export Plug-In . SVG Version: 6.00 Build 0)  -->
<svg version="1.1" id="Capa_1" xmlns="http://www.w3.org/2000/svg" xmlns:xlink="http://www.w3.org/1999/xlink" x="0px" y="0px"
	 viewBox="0 0 512 512" style="enable-background:new 0 0 512 512;" xml:space="preserve">
<path style="fill:#937FE6;" d="M474.022,270.05c11.348,58.349-24.426,57.297-21.269,104.644s-30.513,62.513-30.513,62.513H89.759
	c0,0-33.669-15.166-30.513-62.513c3.156-47.347-32.617-46.295-21.269-104.644v-52.427h431.61L474.022,270.05z"/>
<path style="fill:#8271CC;" d="M90.152,374.693c3.156-47.347-32.617-46.295-21.269-104.644v-52.427H37.978v52.427
	c-11.348,58.349,24.425,57.297,21.269,104.644C56.09,422.04,89.76,437.207,89.76,437.207h30.905
	C120.664,437.207,86.996,422.04,90.152,374.693z"/>
<path style="fill:#937FE6;" d="M27.403,217.623c0-58.407,23.965-113.24,67.48-154.394C137.996,22.456,195.215,0,256,0
	c60.786,0,118.005,22.455,161.118,63.229c43.515,41.155,67.48,95.986,67.48,154.394H27.403V217.623z"/>
<path style="fill:#8271CC;" d="M136.09,63.229c38.205-36.132,87.489-57.864,140.514-62.348C269.791,0.306,262.921,0,256,0
	C195.215,0,137.996,22.455,94.883,63.229c-43.515,41.154-67.48,95.986-67.48,154.393H68.61
	C68.61,159.215,92.575,104.383,136.09,63.229z"/>
<g>
	<circle style="fill:#E3B098;" cx="53.703" cy="228.309" r="44.607"/>
	<circle style="fill:#E3B098;" cx="458.297" cy="228.309" r="44.607"/>
</g>
<path style="fill:#FBC4AC;" d="M399.543,374.361L399.543,374.361L399.543,374.361c-11.75-8.682-20.466-11.946-20.466-11.946H132.922
	c0,0-8.715,3.263-20.466,11.946C88.142,392.322,50.82,428.402,50.82,512h67.347L256,495.691L393.833,512h67.347
	C461.18,428.402,423.858,392.322,399.543,374.361z"/>
<path style="fill:#E3B098;" d="M407.072,380.236c-2.603-2.152-5.129-4.104-7.528-5.876l0,0l0,0
	c-11.75-8.682-20.466-11.946-20.466-11.946H132.922c0,0-8.715,3.263-20.466,11.946c-2.398,1.772-4.924,3.723-7.528,5.876
	c41.72,35.203,94.863,54.461,151.072,54.461C312.209,434.696,365.351,415.44,407.072,380.236z"/>
<path style="fill:#FBC4AC;" d="M216.641,87.558c0,0-48.967,71.018-157.482,85.803c-3.558,14.208-5.453,29.025-5.453,44.263
	c0,105.663,90.569,191.319,202.294,191.319s202.294-85.656,202.294-191.319c0-15.237-1.893-30.055-5.453-44.263
	C305.731,154.46,216.641,87.558,216.641,87.558z"/>
<path style="fill:#3A484A;" d="M154.193,237.204c-4.267,0-7.726-3.459-7.726-7.726v-19.795c0-4.267,3.459-7.726,7.726-7.726
	c4.267,0,7.726,3.459,7.726,7.726v19.795C161.92,233.746,158.46,237.204,154.193,237.204z"/>
<path style="fill:#F98084;" d="M167.674,266.301h-26.961c-4.267,0-7.726-3.459-7.726-7.726s3.459-7.726,7.726-7.726h26.961
	c4.267,0,7.726,3.459,7.726,7.726S171.941,266.301,167.674,266.301z"/>
<path style="fill:#3A484A;" d="M357.807,237.204c-4.267,0-7.726-3.459-7.726-7.726v-19.795c0-4.267,3.459-7.726,7.726-7.726
	c4.267,0,7.726,3.459,7.726,7.726v19.795C365.533,233.746,362.074,237.204,357.807,237.204z"/>
<path style="fill:#F98084;" d="M371.288,266.301h-26.961c-4.267,0-7.726-3.459-7.726-7.726s3.459-7.726,7.726-7.726h26.961
	c4.267,0,7.726,3.459,7.726,7.726S375.555,266.301,371.288,266.301z"/>
<path style="fill:#3A484A;" d="M256,265.182c-9.327,0-18.084-3.899-24.026-10.698c-2.808-3.213-2.48-8.094,0.732-10.902
	c3.212-2.808,8.093-2.481,10.902,0.732c3.007,3.441,7.524,5.415,12.391,5.415c4.867,0,9.384-1.974,12.392-5.415
	c2.808-3.213,7.689-3.541,10.902-0.732c3.213,2.808,3.541,7.689,0.732,10.902C274.084,261.283,265.326,265.182,256,265.182z"/>
<path style="fill:#00AE95;" d="M393.833,512c30.513-61.551-54.712-91.011-137.833-35.248C172.88,420.989,87.655,450.449,118.167,512
	H393.833z"/>
<path style="fill:#009E87;" d="M184.915,448.293c-52.245-7.124-88.259,20.314-66.747,63.707h30.905
	C132.166,477.895,150.802,453.654,184.915,448.293z"/>
<path style="fill:#FFCE1C;" d="M458.481,89.236L444.71,70.783l7.395-21.806c3.251-9.587-5.902-18.739-15.489-15.489l-21.806,7.395
	l-18.454-13.771c-8.113-6.054-19.646-0.177-19.517,9.944l0.295,23.024l-18.8,13.294c-8.265,5.845-6.24,18.63,3.426,21.634
	l21.987,6.834l6.835,21.987c3.005,9.666,15.79,11.692,21.634,3.426l13.294-18.8l23.024,0.295
	C458.658,108.882,464.535,97.349,458.481,89.236z"/>
<g>
</g>
<g>
</g>
<g>
</g>
<g>
</g>
<g>
</g>
<g>
</g>
<g>
</g>
<g>
</g>
<g>
</g>
<g>
</g>
<g>
</g>
<g>
</g>
<g>
</g>
<g>
</g>
<g>
</g>
</svg>
