<?xml version="1.0" encoding="iso-8859-1"?>
<!-- Generator: Adobe Illustrator 19.0.0, SVG Export Plug-In . SVG Version: 6.00 Build 0)  -->
<svg version="1.1" id="Capa_1" xmlns="http://www.w3.org/2000/svg" xmlns:xlink="http://www.w3.org/1999/xlink" x="0px" y="0px"
	 viewBox="0 0 512 512" style="enable-background:new 0 0 512 512;" xml:space="preserve">
<g>
	<path style="fill:#DC5A64;" d="M444.055,464.023l-54.479,8.909L375.402,512h73.484C448.886,494.26,447.086,478.309,444.055,464.023
		z"/>
	<path style="fill:#DC5A64;" d="M136.598,512l-28.099-47.977H67.945l0,0c-3.032,14.286-4.832,30.237-4.832,47.977H136.598z"/>
</g>
<g>
	<path style="fill:#D4835F;" d="M253.701,101.317c-2.686,0-5.405-0.699-7.883-2.17L130.736,30.841
		c-7.348-4.362-9.769-13.854-5.407-21.202c4.362-7.347,13.855-9.769,21.202-5.407l115.082,68.307
		c7.347,4.362,9.769,13.854,5.407,21.202C264.129,98.611,258.981,101.317,253.701,101.317z"/>
	<path style="fill:#D4835F;" d="M258.299,101.317c2.686,0,5.405-0.699,7.883-2.17l115.082-68.307
		c7.348-4.362,9.769-13.854,5.407-21.202c-4.362-7.347-13.855-9.769-21.202-5.407L250.388,72.538
		c-7.347,4.362-9.769,13.854-5.407,21.202C247.871,98.611,253.019,101.317,258.299,101.317z"/>
</g>
<ellipse style="fill:#313D40;" cx="256" cy="47.45" rx="59.823" ry="47.45"/>
<path style="fill:#3A484A;" d="M428.252,418.782c129.961-71.17,40.232-206.298,40.232-206.298
	c0-80.455-46.417-165.036-212.484-165.036S43.516,132.029,43.516,212.484c0,0-89.73,135.128,40.232,206.298H428.252z"/>
<path style="fill:#313D40;" d="M95.025,212.484c0-76.127,41.577-155.933,186.73-164.302c-8.253-0.476-16.82-0.736-25.755-0.736
	c-166.068,0-212.484,84.581-212.484,165.037c0,0-89.73,135.128,40.232,206.298h51.509C5.295,347.612,95.025,212.484,95.025,212.484z
	"/>
<path style="fill:#EFEDEE;" d="M211.647,512l83.034-11.218l112.947-59.31l6.842-44.851l-0.618-0.797
	c-7.881-10.335-15.959-17.974-22.908-23.108l0,0l0,0c-11.047-8.162-19.24-11.23-19.24-11.23H140.297c0,0-8.193,3.067-19.24,11.23
	c-7.131,5.268-15.452,13.158-23.526,23.905l10.968,67.402L211.647,512"/>
<path style="fill:#D4D2D3;" d="M405.005,393.095c1.256-1.188,2.493-2.387,3.714-3.599c-6.193-7.19-12.331-12.758-17.777-16.781l0,0
	l0,0c-11.047-8.162-19.24-11.23-19.24-11.23H140.297c0,0-8.193,3.068-19.24,11.23c-5.448,4.024-11.589,9.584-17.785,16.772
	c1.223,1.215,2.464,2.417,3.722,3.608c39.876,37.713,92.794,58.482,149.005,58.482S365.129,430.808,405.005,393.095z"/>
<path style="fill:#EFEDEE;" d="M256,161.011c0,0-45.651,41.52-180.693,58.871c-3.267,13.043-5.006,16.329-5.006,30.316
	c0,96.995,83.14,175.624,185.698,175.624s185.698-78.63,185.698-175.624c0-13.987-1.739-17.274-5.006-30.316
	C301.651,202.532,256,161.011,256,161.011z"/>
<g>
	<path style="fill:#3A484A;" d="M156.195,278.988c-4.268,0-7.726-3.459-7.726-7.726v-19.406c0-4.267,3.458-7.726,7.726-7.726
		c4.268,0,7.726,3.459,7.726,7.726v19.406C163.921,275.529,160.463,278.988,156.195,278.988z"/>
	<path style="fill:#3A484A;" d="M355.806,278.988c-4.268,0-7.726-3.459-7.726-7.726v-19.406c0-4.267,3.458-7.726,7.726-7.726
		c4.268,0,7.726,3.459,7.726,7.726v19.406C363.532,275.529,360.073,278.988,355.806,278.988z"/>
	<path style="fill:#3A484A;" d="M256,306.416c-9.186,0-17.813-3.842-23.668-10.54c-2.809-3.212-2.481-8.093,0.731-10.902
		c3.213-2.807,8.094-2.482,10.902,0.731c2.921,3.341,7.307,5.257,12.035,5.257c4.729,0,9.114-1.916,12.034-5.256
		c2.81-3.213,7.69-3.541,10.902-0.732c3.213,2.808,3.542,7.689,0.733,10.902C273.815,302.574,265.188,306.416,256,306.416z"/>
</g>
<g>
	<circle style="fill:#F98084;" cx="156.196" cy="312.526" r="17.565"/>
	<circle style="fill:#F98084;" cx="355.804" cy="312.526" r="17.565"/>
</g>
<path style="fill:#DC5A64;" d="M397.255,135.158l-2.06-2.761l1.106-3.262c4.835-14.258-8.778-27.872-23.036-23.036l-3.262,1.106
	l-2.761-2.06c-12.067-9.005-29.219-0.265-29.027,14.79l0.044,3.444l-2.812,1.989c-12.292,8.693-9.281,27.708,5.096,32.177
	l3.289,1.023l1.022,3.289c4.469,14.377,23.484,17.388,32.177,5.096l1.989-2.812l3.444,0.044
	C397.52,164.377,406.26,147.224,397.255,135.158z"/>
<circle style="fill:#F98084;" cx="366.569" cy="135.829" r="10.353"/>
<path style="fill:#ECB000;" d="M97.53,396.621c-11.966,15.926-23.377,38.145-29.586,67.402
	c22.132,19.038,45.857,34.932,68.653,47.977h75.049l40.139-7.691l4.214-7.728C213.517,479.597,148.522,447.708,97.53,396.621z"/>
<path style="fill:#FFCE1C;" d="M444.055,464.023c-6.208-29.257-17.62-51.476-29.586-67.402C331.574,479.673,211.647,512,211.647,512
	h163.756C398.197,498.955,421.922,483.061,444.055,464.023z"/>
<g>
</g>
<g>
</g>
<g>
</g>
<g>
</g>
<g>
</g>
<g>
</g>
<g>
</g>
<g>
</g>
<g>
</g>
<g>
</g>
<g>
</g>
<g>
</g>
<g>
</g>
<g>
</g>
<g>
</g>
</svg>
