<?xml version="1.0" encoding="iso-8859-1"?>
<!-- Generator: Adobe Illustrator 19.0.0, SVG Export Plug-In . SVG Version: 6.00 Build 0)  -->
<svg version="1.1" id="Capa_1" xmlns="http://www.w3.org/2000/svg" xmlns:xlink="http://www.w3.org/1999/xlink" x="0px" y="0px"
	 viewBox="0 0 512 512" style="enable-background:new 0 0 512 512;" xml:space="preserve">
<path style="fill:#EFEDEE;" d="M396.653,366.822c-11.514-8.508-20.053-11.705-20.053-11.705H135.401c0,0-8.54,3.197-20.054,11.705
	C91.522,384.422,54.952,430.085,54.952,512h62.389l7.726-5.353l7.726,5.353h246.414l7.726-8.255L394.66,512h62.389
	C457.048,430.085,420.478,384.422,396.653,366.822z"/>
<path style="fill:#D4D2D3;" d="M141.102,366.822c11.514-8.508,20.054-11.705,20.054-11.705h-25.755c0,0-8.54,3.197-20.054,11.705
	C91.522,384.422,54.952,430.085,54.952,512h25.755C80.706,430.085,117.277,384.422,141.102,366.822z"/>
<path style="fill:#87543D;" d="M413.873,61.956c42.638,40.325,66.121,94.053,66.121,151.285H32.006
	c0-57.232,23.482-110.96,66.121-151.285C98.127,61.956,413.873,61.956,413.873,61.956z"/>
<circle style="fill:#E3B098;" cx="454.217" cy="223.704" r="43.711"/>
<ellipse style="fill:#FBC4AC;" cx="256" cy="213.237" rx="198.217" ry="187.462"/>
<path style="fill:#E3B098;" d="M88.686,213.24c0-98.617,80.515-179.446,182.766-186.903c-5.099-0.372-10.252-0.564-15.453-0.564
	c-97.529,0-178.607,66.617-195.138,154.362C59.899,180.055,58.888,180,57.78,180c-24.139,0-43.707,19.569-43.707,43.708
	s19.568,43.708,43.707,43.708c3.334,0,5.97-0.385,8.074-1.093C90.06,344.003,166.022,400.707,256,400.707
	c5.2,0,10.353-0.192,15.453-0.564C169.201,392.688,88.686,311.857,88.686,213.24z"/>
<path style="fill:#D4835F;" d="M269.051,0C131.932,0,132.619,47.891,75.572,21.086c0,0-52.923,125.091,193.479,125.091
	S481.087,0,269.051,0z"/>
<path style="fill:#A36549;" d="M103.979,29.155c-8.231-0.431-17.204-2.805-28.407-8.069c0,0-52.923,125.092,193.479,125.092
	c5.054,0,9.979-0.068,14.799-0.189C92.005,141.481,97.443,56.09,103.979,29.155z"/>
<g>
	<polygon style="fill:#FBE1D5;" points="225.086,200.044 190.536,183.902 130.766,183.902 96.9,204.792 93.418,234.861 
		120.955,283.92 154.799,295.947 198.183,288.351 225.086,256.067 230.151,214.462 	"/>
	<polygon style="fill:#FBE1D5;" points="286.914,200.044 321.464,183.902 381.234,183.902 415.101,204.792 418.582,234.861 
		391.045,283.92 357.201,295.947 313.817,288.351 286.914,256.067 281.849,214.462 	"/>
</g>
<g>
	<path style="fill:#3A484A;" d="M162.525,214.462c-4.267,0-7.726,3.459-7.726,7.726v18.175c0,4.267,3.459,7.726,7.726,7.726
		c4.267,0,7.726-3.459,7.726-7.726v-18.175C170.252,217.921,166.792,214.462,162.525,214.462z"/>
	<path style="fill:#3A484A;" d="M349.474,214.462c-4.267,0-7.726,3.459-7.726,7.726v18.175c0,4.267,3.459,7.726,7.726,7.726
		c4.267,0,7.726-3.459,7.726-7.726v-18.175C357.201,217.921,353.742,214.462,349.474,214.462z"/>
	<path style="fill:#3A484A;" d="M412.758,191.917c-10.336-7.302-29.705-16.007-63.283-16.007s-52.946,8.705-63.282,16.007
		c-4.657,3.291-8.205,7.822-10.383,12.961c-5.234-3.059-12.04-5.742-19.808-5.742c-7.77,0-14.575,2.685-19.809,5.743
		c-2.178-5.139-5.726-9.67-10.383-12.961c-10.336-7.302-29.704-16.007-63.282-16.007s-52.946,8.705-63.282,16.007
		c-8.751,6.183-13.632,16.721-12.74,27.502c1.124,13.566,4.644,33.336,15.029,50.473c13.215,21.806,34.306,33.332,60.993,33.332
		s47.778-11.526,60.993-33.332c9.663-15.944,13.379-34.16,14.755-47.546c3.021-2.673,9.802-7.757,17.726-7.757
		c7.91,0,14.69,5.074,17.727,7.76c1.376,13.385,5.093,31.6,14.755,47.543c13.215,21.806,34.306,33.332,60.993,33.332
		c26.687,0,47.778-11.526,60.993-33.332c10.386-17.137,13.905-36.906,15.029-50.472C426.391,208.637,421.509,198.1,412.758,191.917z
		 M210.303,261.882c-10.411,17.178-26.485,25.887-47.778,25.887s-37.367-8.71-47.778-25.887
		c-9.293-15.334-12.037-33.987-12.844-43.739c-0.443-5.352,1.954-10.566,6.256-13.606c8.507-6.01,24.845-13.175,54.366-13.175
		s45.859,7.165,54.366,13.175c4.303,3.04,6.7,8.253,6.256,13.606C222.34,227.896,219.596,246.547,210.303,261.882z M410.097,218.143
		c-0.808,9.753-3.551,28.404-12.844,43.739c-10.41,17.178-26.485,25.887-47.778,25.887s-37.367-8.71-47.777-25.887
		c-9.293-15.335-12.037-33.987-12.844-43.739c-0.444-5.352,1.953-10.565,6.256-13.605c8.507-6.01,24.845-13.175,54.366-13.175
		s45.86,7.165,54.366,13.175C408.143,207.577,410.541,212.79,410.097,218.143z"/>
</g>
<g>
	<path style="fill:#D4D2D3;" d="M132.792,512v-64.092c0-4.267-3.459-7.726-7.726-7.726c-4.267,0-7.726,3.459-7.726,7.726V512
		H132.792z"/>
	<path style="fill:#D4D2D3;" d="M394.659,512v-64.092c0-4.267-3.459-7.726-7.726-7.726c-4.267,0-7.726,3.459-7.726,7.726V512
		H394.659z"/>
</g>
<g>
	<path style="fill:#BF4E57;" d="M239.393,414.584c-41.318,29.486-68.693,33.259-68.693-15.047s27.376-44.533,68.693-15.047V414.584z
		"/>
	<path style="fill:#BF4E57;" d="M272.607,414.584c41.319,29.486,68.694,33.259,68.694-15.047s-27.376-44.533-68.694-15.047V414.584z
		"/>
</g>
<path style="fill:#F98084;" d="M323.099,388.715c-22.721-4.922-59.099,1.438-67.099,2.951c-7.999-1.514-44.381-7.874-67.099-2.951
	c-4.17,0.903-6.819,5.017-5.915,9.187c0.903,4.17,5.021,6.82,9.187,5.915c21.932-4.751,61.896,3.212,62.297,3.293
	c0.024,0.005,0.047,0.006,0.072,0.01c0.194,0.037,0.389,0.066,0.586,0.088c0.046,0.005,0.094,0.014,0.14,0.019
	c0.24,0.023,0.482,0.037,0.726,0.037c0.002,0,0.004,0,0.006,0c0.002,0,0.004,0,0.006,0c0.244,0,0.486-0.013,0.726-0.037
	c0.046-0.004,0.094-0.013,0.14-0.019c0.197-0.023,0.392-0.05,0.586-0.088c0.024-0.004,0.048-0.006,0.072-0.01
	c0.401-0.081,40.365-8.046,62.297-3.293c4.17,0.9,8.284-1.744,9.187-5.915C329.919,393.732,327.27,389.619,323.099,388.715z"/>
<path style="fill:#DC5A64;" d="M259.733,379.73h-7.467c-10.939,0-19.807,8.868-19.807,19.807l0,0
	c0,10.939,8.868,19.807,19.807,19.807h7.467c10.939,0,19.807-8.868,19.807-19.807l0,0
	C279.541,388.598,270.673,379.73,259.733,379.73z"/>
<g>
	<circle style="fill:#3A484A;" cx="256" cy="447.912" r="9.622"/>
	<circle style="fill:#3A484A;" cx="256" cy="482.959" r="9.622"/>
</g>
<path style="fill:#D4835F;" d="M256,301.801c32.929,34.039,65.633,20.733,81.606,10.379c4.193-2.719,4.333-8.714,0.432-11.837
	c-22.639-18.123-22.654-88.178-82.037-51.497c-59.385-36.683-59.398,33.373-82.037,51.497c-3.901,3.122-3.761,9.119,0.432,11.837
	C190.367,322.534,223.07,335.84,256,301.801z"/>
<g>
</g>
<g>
</g>
<g>
</g>
<g>
</g>
<g>
</g>
<g>
</g>
<g>
</g>
<g>
</g>
<g>
</g>
<g>
</g>
<g>
</g>
<g>
</g>
<g>
</g>
<g>
</g>
<g>
</g>
</svg>
