<?xml version="1.0" encoding="iso-8859-1"?>
<!-- Generator: Adobe Illustrator 19.0.0, SVG Export Plug-In . SVG Version: 6.00 Build 0)  -->
<svg version="1.1" id="Capa_1" xmlns="http://www.w3.org/2000/svg" xmlns:xlink="http://www.w3.org/1999/xlink" x="0px" y="0px"
	 viewBox="0 0 512 512" style="enable-background:new 0 0 512 512;" xml:space="preserve">
<path style="fill:#A36549;" d="M414.026,62.015c-4.097-3.873-8.332-7.578-12.684-11.113L256,28.479L110.658,50.902
	c-4.351,3.535-8.587,7.238-12.684,11.113c-9.902,9.372-18.775,19.465-26.555,30.153l84.901,23.343L256,104.897l121.349,16.982
	l63.233-29.711C432.802,81.48,423.929,71.387,414.026,62.015z"/>
<path style="fill:#87543D;" d="M112.627,92.168c7.78-10.688,16.653-20.781,26.555-30.153c4.097-3.875,8.332-7.578,12.684-11.113
	l124.738-19.244L256,28.48L110.658,50.902c-4.351,3.535-8.587,7.238-12.684,11.113c-9.902,9.372-18.775,19.465-26.555,30.153
	l84.901,23.343l29.704-3.163L112.627,92.168z"/>
<path style="fill:#FFA74F;" d="M401.343,50.902H110.658C151.18,17.958,202.158,0,256,0S360.82,17.958,401.343,50.902z"/>
<path style="fill:#F2973D;" d="M256,0c-53.842,0-104.82,17.958-145.343,50.902h41.207C187.179,22.193,230.433,4.87,276.604,0.889
	C269.793,0.302,262.921,0,256,0z"/>
<path style="fill:#FFA74F;" d="M462.053,467.677H49.947c-73.924-49.502-9.743-81.724-19.295-126.345s19.295-68.447,19.295-68.447
	l-18.16-59.415c0-44.004,13.861-85.927,39.631-121.303h369.162c25.77,35.375,39.631,77.299,39.631,121.303l-18.16,59.415
	c0,0,28.848,23.827,19.295,68.447C471.796,385.953,535.976,418.176,462.053,467.677z"/>
<path style="fill:#F2973D;" d="M71.859,341.333c-9.552-44.619,19.295-68.446,19.295-68.446l-18.16-59.415
	c0-44.004,13.861-85.928,39.631-121.304H71.418c-25.77,35.375-39.631,77.3-39.631,121.304l18.16,59.415
	c0,0-28.848,23.827-19.295,68.446c9.552,44.62-54.628,76.842,19.295,126.345h41.207C17.231,418.175,81.412,385.953,71.859,341.333z"
	/>
<g>
	<circle style="fill:#E3B098;" cx="57.927" cy="223.93" r="43.68"/>
	<circle style="fill:#E3B098;" cx="454.063" cy="223.93" r="43.68"/>
</g>
<g>
	<path style="fill:#FBC4AC;" d="M115.454,366.933C91.649,384.52,55.105,430.148,55.105,512h60.349l27.667-85.157L115.454,366.933z"
		/>
	<path style="fill:#FBC4AC;" d="M396.546,366.933c23.806,17.587,60.349,63.215,60.349,145.067h-60.349l-27.667-85.157
		L396.546,366.933z"/>
</g>
<polygon style="fill:#E3B098;" points="331.357,355.237 180.643,355.237 143.124,426.847 153.6,449.135 260.6,477.914 
	358.4,449.135 368.876,426.847 "/>
<polygon style="fill:#F98084;" points="358.4,449.135 331.357,512 180.643,512 153.6,449.135 "/>
<path style="fill:#A36549;" d="M396.546,366.933V512h-65.189V355.237h45.15C376.507,355.237,385.041,358.432,396.546,366.933z"/>
<path style="fill:#E3B098;" d="M55.105,512h30.905c0-59.551,19.343-99.909,39.051-124.263l-9.607-20.803
	c-1.859,1.373-3.804,2.94-5.796,4.661C86.155,391.891,55.105,436.542,55.105,512z"/>
<path style="fill:#A36549;" d="M180.643,355.237V512h-65.189V366.933c11.505-8.501,20.038-11.696,20.038-11.696L180.643,355.237
	L180.643,355.237z"/>
<path style="fill:#87543D;" d="M135.494,355.237c0,0-8.533,3.195-20.038,11.697v34.142c10.281-16.014,21.57-27.245,30.905-34.142
	c11.504-8.5,20.037-11.696,20.038-11.697H135.494z"/>
<path style="fill:#FBC4AC;" d="M256,118.342c0,0-48.693,33.285-192.729,51.79c-3.484,13.912-5.338,28.419-5.338,43.338
	c0,103.456,88.678,187.323,198.068,187.323s198.068-83.867,198.068-187.323c0-14.919-1.854-29.426-5.338-43.338
	C304.693,151.626,256,118.342,256,118.342z"/>
<path style="fill:#3A484A;" d="M156.321,232.804c-4.267,0-7.726-3.459-7.726-7.726v-19.382c0-4.267,3.459-7.726,7.726-7.726
	c4.267,0,7.726,3.459,7.726,7.726v19.382C164.047,229.345,160.588,232.804,156.321,232.804z"/>
<path style="fill:#F98084;" d="M169.519,261.292h-26.398c-4.267,0-7.726-3.459-7.726-7.726c0-4.267,3.459-7.726,7.726-7.726h26.398
	c4.267,0,7.726,3.459,7.726,7.726C177.246,257.833,173.786,261.292,169.519,261.292z"/>
<path style="fill:#3A484A;" d="M355.68,232.804c-4.267,0-7.726-3.459-7.726-7.726v-19.382c0-4.267,3.459-7.726,7.726-7.726
	s7.726,3.459,7.726,7.726v19.382C363.407,229.345,359.947,232.804,355.68,232.804z"/>
<path style="fill:#F98084;" d="M368.879,261.292h-26.398c-4.267,0-7.726-3.459-7.726-7.726c0-4.267,3.459-7.726,7.726-7.726h26.398
	c4.267,0,7.726,3.459,7.726,7.726C376.605,257.833,373.146,261.292,368.879,261.292z"/>
<path style="fill:#3A484A;" d="M256,260.197c-9.178,0-17.796-3.837-23.646-10.529c-2.808-3.213-2.481-8.094,0.732-10.902
	c3.213-2.807,8.093-2.481,10.902,0.732c2.914,3.335,7.293,5.247,12.011,5.247s9.098-1.912,12.012-5.247
	c2.808-3.213,7.689-3.54,10.902-0.731c3.213,2.808,3.541,7.689,0.731,10.902C273.796,256.36,265.178,260.197,256,260.197z"/>
<g>
</g>
<g>
</g>
<g>
</g>
<g>
</g>
<g>
</g>
<g>
</g>
<g>
</g>
<g>
</g>
<g>
</g>
<g>
</g>
<g>
</g>
<g>
</g>
<g>
</g>
<g>
</g>
<g>
</g>
</svg>
