<?xml version="1.0" encoding="iso-8859-1"?>
<!-- Generator: Adobe Illustrator 19.0.0, SVG Export Plug-In . SVG Version: 6.00 Build 0)  -->
<svg version="1.1" id="Capa_1" xmlns="http://www.w3.org/2000/svg" xmlns:xlink="http://www.w3.org/1999/xlink" x="0px" y="0px"
	 viewBox="0 0 512 512" style="enable-background:new 0 0 512 512;" xml:space="preserve">
<path style="fill:#9E9C9D;" d="M446.745,512c0-77.78-34.724-121.137-57.346-137.85l0,0l0,0
	c-10.932-8.079-19.042-11.115-19.042-11.115H141.335c0,0-8.109,3.036-19.042,11.115C99.671,390.863,64.947,434.22,64.947,512
	H446.745z"/>
<path style="fill:#828081;" d="M151.138,374.151c10.932-8.079,19.042-11.115,19.042-11.115h-28.845c0,0-8.109,3.036-19.042,11.115
	C99.671,390.863,64.947,434.22,64.947,512h28.845C93.792,434.22,128.516,390.863,151.138,374.151z"/>
<path style="fill:#00A1E0;" d="M390.414,355.245c47.289,15.426,48.689,55.725,42.079,77.997c0,0-58.074-18.759-93.541,18.796
	s-83.106,31.99-83.106,31.99s-47.638,5.564-83.106-31.99s-93.541-18.796-93.541-18.796c-6.612-22.272-5.212-62.571,42.079-77.997
	H390.414z"/>
<path style="fill:#008FC7;" d="M152.183,355.245h-30.905c-47.289,15.426-48.689,55.725-42.079,77.997c0,0,12.635-4.078,29.716-4.623
	C103.877,405.768,108.007,369.655,152.183,355.245z"/>
<g>
	<path style="fill:#EFEDEE;" d="M181.086,499.404c-4.268,0-7.726-3.459-7.726-7.726c0-9.818,4.217-22.001,12.532-36.211
		c5.941-10.151,11.832-17.64,12.08-17.954c2.646-3.348,7.506-3.919,10.852-1.274c3.348,2.644,3.919,7.501,1.276,10.849l0,0
		c-5.92,7.512-21.288,30.167-21.288,44.59C188.813,495.945,185.354,499.404,181.086,499.404z"/>
	<path style="fill:#EFEDEE;" d="M330.607,499.404c-4.268,0-7.726-3.459-7.726-7.726c0-14.47-15.366-37.092-21.287-44.587
		c-2.644-3.348-2.075-8.207,1.274-10.852c3.346-2.644,8.206-2.075,10.852,1.274c0.247,0.314,6.139,7.803,12.08,17.954
		c8.317,14.21,12.533,26.393,12.533,36.212C338.333,495.945,334.874,499.404,330.607,499.404z"/>
</g>
<g>
	<path style="fill:#828081;" d="M119.115,512v-49.531c0-4.267,3.458-7.726,7.726-7.726s7.726,3.459,7.726,7.726V512H119.115z"/>
	<path style="fill:#828081;" d="M377.125,512v-49.531c0-4.267,3.458-7.726,7.726-7.726c4.268,0,7.726,3.459,7.726,7.726V512H377.125
		z"/>
</g>
<g>
	<circle style="fill:#E3B098;" cx="55.282" cy="225.187" r="44.225"/>
	<circle style="fill:#E3B098;" cx="456.412" cy="225.187" r="44.225"/>
	<path style="fill:#E3B098;" d="M441.517,221.287c-2.458,36.981-19.765,70.759-43.549,98.587
		c-16.717,19.56-35.836,42.892-61.89,49.615c-29.944,7.727-51.303-18.811-80.077-18.811c-28.774,0-50.134,26.538-80.077,18.811
		c-26.055-6.724-45.173-30.056-61.891-49.615c-23.784-27.827-41.091-61.606-43.549-98.587v-74.14h356.477L441.517,221.287z"/>
</g>
<path style="fill:#00A1E0;" d="M319.545,0H192.145C116.931,0,55.959,60.973,55.959,136.187v62.747h399.774v-62.747
	C455.733,60.973,394.759,0,319.545,0z"/>
<path style="fill:#008FC7;" d="M223.051,0h-30.905C116.931,0,55.959,60.973,55.959,136.187v62.747h30.905v-62.747
	C86.864,60.973,147.836,0,223.051,0z"/>
<path style="fill:#3A484A;" d="M154.911,265.371c-4.268,0-7.726-3.459-7.726-7.726v-19.626c0-4.267,3.458-7.726,7.726-7.726
	c4.268,0,7.726,3.459,7.726,7.726v19.626C162.637,261.911,159.178,265.371,154.911,265.371z"/>
<path style="fill:#F98084;" d="M168.276,294.218h-26.731c-4.268,0-7.726-3.459-7.726-7.726c0-4.267,3.458-7.726,7.726-7.726h26.731
	c4.268,0,7.726,3.459,7.726,7.726C176.003,290.758,172.543,294.218,168.276,294.218z"/>
<path style="fill:#3A484A;" d="M356.782,265.371c-4.268,0-7.726-3.459-7.726-7.726v-19.626c0-4.267,3.458-7.726,7.726-7.726
	c4.268,0,7.726,3.459,7.726,7.726v19.626C364.508,261.911,361.049,265.371,356.782,265.371z"/>
<path style="fill:#F98084;" d="M370.147,294.218h-26.731c-4.268,0-7.726-3.459-7.726-7.726c0-4.267,3.458-7.726,7.726-7.726h26.731
	c4.268,0,7.726,3.459,7.726,7.726C377.874,290.758,374.415,294.218,370.147,294.218z"/>
<g>
	<path style="fill:#3A484A;" d="M255.846,293.109c-9.265,0-17.965-3.873-23.87-10.628c-2.809-3.213-2.481-8.094,0.732-10.902
		c3.211-2.808,8.093-2.481,10.901,0.732c2.97,3.398,7.43,5.346,12.236,5.346c4.807,0,9.266-1.948,12.236-5.346
		c2.808-3.213,7.689-3.541,10.901-0.732c3.213,2.808,3.542,7.689,0.732,10.902C273.812,289.235,265.112,293.109,255.846,293.109z"/>
	<path style="fill:#3A484A;" d="M455.725,198.936l0.007-0.001l-36.656-7.022l6.408,32.635
		c-2.246,33.785-18.057,64.644-39.786,90.067c-15.272,17.87-32.738,39.184-56.542,45.327c-27.355,7.059-46.869-17.185-73.156-17.185
		s-45.801,24.245-73.156,17.185c-23.803-6.143-41.269-27.457-56.541-45.327c-21.729-25.423-37.54-56.282-39.786-90.067v-31.467
		l-30.558,5.854l0.008,0.001c-0.446,5.164-0.685,10.385-0.685,15.659c0,104.759,89.796,189.684,200.564,189.684
		s200.564-84.924,200.564-189.684C456.41,209.321,456.172,204.101,455.725,198.936z"/>
</g>
<path style="fill:#313D40;" d="M455.733,198.935l34.974-43.946c24.326-30.568,2.559-75.707-36.506-75.707h-244.11
	c-37.223,0-72.415,16.969-95.593,46.094l-58.541,73.56h399.775V198.935z"/>
<g>
</g>
<g>
</g>
<g>
</g>
<g>
</g>
<g>
</g>
<g>
</g>
<g>
</g>
<g>
</g>
<g>
</g>
<g>
</g>
<g>
</g>
<g>
</g>
<g>
</g>
<g>
</g>
<g>
</g>
</svg>
